<svg version="1.1" viewBox="0.0 0.0 427.9790026246719 354.32020997375326" fill="none" stroke="none" stroke-linecap="square" stroke-miterlimit="10" xmlns:xlink="http://www.w3.org/1999/xlink" xmlns="http://www.w3.org/2000/svg"><clipPath id="p.0"><path d="m0 0l427.979 0l0 354.32022l-427.979 0l0 -354.32022z" clip-rule="nonzero"/></clipPath><g clip-path="url(#p.0)"><path fill="#000000" fill-opacity="0.0" d="m0 0l427.979 0l0 354.32022l-427.979 0z" fill-rule="evenodd"/><path fill="#000000" fill-opacity="0.0" d="m0 75.22572l355.2126 0l0 196.69292l-355.2126 0z" fill-rule="evenodd"/><path fill="#4a86e8" d="m53.69789 207.87135q-10.234375 0 -18.359375 -4.671875q-8.125 -4.671875 -12.796875 -12.796875q-4.671875 -8.125 -4.671875 -18.375q0 -10.234375 4.671875 -18.296875q4.671875 -8.0625 12.796875 -12.734375q8.125 -4.671875 18.359375 -4.671875q9.21875 0 16.578125 3.96875q7.359375 3.96875 11.453125 10.625l0 -39.9375q0 -1.796875 1.09375 -2.8125q1.09375 -1.03125 2.75 -1.03125q1.796875 0 2.8125 1.03125q1.03125 1.015625 1.03125 2.8125l0 61.828125q-0.125 9.984375 -4.875 17.921875q-4.734375 7.921875 -12.734375 12.53125q-8.0 4.609375 -18.109375 4.609375zm0 -7.171875q8.0625 0 14.390625 -3.765625q6.34375 -3.78125 9.984375 -10.234375q3.65625 -6.46875 3.65625 -14.671875q0 -8.1875 -3.65625 -14.578125q-3.640625 -6.40625 -9.984375 -10.171875q-6.328125 -3.78125 -14.390625 -3.78125q-7.9375 0 -14.34375 3.78125q-6.390625 3.765625 -10.109375 10.171875q-3.703125 6.390625 -3.703125 14.578125q0 8.203125 3.703125 14.671875q3.71875 6.453125 10.109375 10.234375q6.40625 3.765625 14.34375 3.765625zm89.73639 7.046875q-10.109375 0 -17.984375 -4.546875q-7.875 -4.546875 -12.359375 -12.609375q-4.46875 -8.0625 -4.46875 -18.421875q0 -10.5 4.21875 -18.5q4.21875 -8.0 11.640625 -12.609375q7.421875 -4.609375 17.03125 -4.609375q9.46875 0 16.765625 4.421875q7.296875 4.40625 11.390625 12.15625q4.09375 7.734375 4.09375 17.859375q0 1.65625 -1.03125 2.625q-1.015625 0.953125 -2.671875 0.953125l-56.328125 0l0 -6.65625l58.375 0l-5.640625 4.21875q0.265625 -8.3125 -2.8125 -14.703125q-3.078125 -6.40625 -8.78125 -10.046875q-5.6875 -3.65625 -13.359375 -3.65625q-7.296875 0 -13.0 3.65625q-5.6875 3.640625 -8.953125 10.046875q-3.265625 6.390625 -3.265625 14.84375q0 8.3125 3.453125 14.71875q3.453125 6.390625 9.59375 10.046875q6.15625 3.640625 14.09375 3.640625q4.984375 0 10.03125 -1.71875q5.0625 -1.734375 8.015625 -4.546875q1.015625 -1.03125 2.484375 -1.09375q1.484375 -0.0625 2.5 0.828125q1.40625 1.15625 1.46875 2.5625q0.078125 1.40625 -1.203125 2.5625q-4.09375 3.71875 -10.6875 6.15625q-6.59375 2.421875 -12.609375 2.421875zm75.39201 0q-10.109375 0 -17.984375 -4.546875q-7.875 -4.546875 -12.359375 -12.609375q-4.46875 -8.0625 -4.46875 -18.421875q0 -10.5 4.21875 -18.5q4.21875 -8.0 11.640625 -12.609375q7.421875 -4.609375 17.03125 -4.609375q9.46875 0 16.765625 4.421875q7.296875 4.40625 11.390625 12.15625q4.09375 7.734375 4.09375 17.859375q0 1.65625 -1.03125 2.625q-1.015625 0.953125 -2.671875 0.953125l-56.328125 0l0 -6.65625l58.375 0l-5.640625 4.21875q0.265625 -8.3125 -2.8125 -14.703125q-3.078125 -6.40625 -8.78125 -10.046875q-5.6875 -3.65625 -13.359375 -3.65625q-7.296875 0 -13.0 3.65625q-5.6875 3.640625 -8.953125 10.046875q-3.265625 6.390625 -3.265625 14.84375q0 8.3125 3.453125 14.71875q3.453125 6.390625 9.59375 10.046875q6.15625 3.640625 14.09375 3.640625q4.984375 0 10.03125 -1.71875q5.0625 -1.734375 8.015625 -4.546875q1.015625 -1.03125 2.484375 -1.09375q1.484375 -0.0625 2.5 0.828125q1.40625 1.15625 1.46875 2.5625q0.078125 1.40625 -1.203125 2.5625q-4.09375 3.71875 -10.6875 6.15625q-6.59375 2.421875 -12.609375 2.421875z" fill-rule="nonzero"/><path fill="#4a86e8" d="m269.6377 237.05885q-1.65625 0 -2.75 -1.09375q-1.09375 -1.078125 -1.09375 -2.75l0 -61.828125q0.265625 -10.109375 4.9375 -17.96875q4.671875 -7.875 12.734375 -12.484375q8.0625 -4.609375 18.046875 -4.609375q10.234375 0 18.359375 4.671875q8.140625 4.671875 12.8125 12.796875q4.671875 8.125 4.671875 18.375q0 10.109375 -4.671875 18.234375q-4.671875 8.125 -12.8125 12.796875q-8.125 4.671875 -18.359375 4.671875q-9.21875 0 -16.578125 -3.96875q-7.359375 -3.96875 -11.453125 -10.625l0 39.9375q0 1.671875 -1.03125 2.75q-1.015625 1.09375 -2.8125 1.09375zm31.875 -36.359375q8.0625 0 14.390625 -3.765625q6.34375 -3.78125 10.046875 -10.234375q3.71875 -6.46875 3.71875 -14.53125q0 -8.203125 -3.71875 -14.65625q-3.703125 -6.46875 -10.046875 -10.234375q-6.328125 -3.78125 -14.390625 -3.78125q-7.9375 0 -14.34375 3.78125q-6.390625 3.765625 -10.046875 10.234375q-3.640625 6.453125 -3.640625 14.65625q0 8.0625 3.640625 14.53125q3.65625 6.453125 10.046875 10.234375q6.40625 3.765625 14.34375 3.765625z" fill-rule="nonzero"/><path fill="#000000" fill-opacity="0.0" d="m161.00787 1.1469816l109.165344 0l0 276.72443l-109.165344 0z" fill-rule="evenodd"/><path fill="#4a86e8" d="m201.63667 90.276985q0.765625 -8.1875 4.46875 -14.515625q3.71875 -6.34375 9.609375 -9.921875q5.890625 -3.59375 13.0625 -3.59375q4.859375 0 7.546875 1.15625q2.6875 1.140625 2.046875 4.09375q-0.375 1.921875 -1.796875 2.3125q-1.40625 0.375 -3.390625 0.0625q-1.984375 -0.328125 -4.40625 -0.328125q-6.40625 0 -11.40625 2.6875q-4.984375 2.6875 -7.796875 7.359375q-2.8125 4.671875 -2.8125 10.6875l-5.125 0zm1.28125 42.750008q-1.65625 0 -2.75 -1.078125q-1.09375 -1.09375 -1.09375 -2.765625l0 -62.328133q0 -1.796875 1.09375 -2.8125q1.09375 -1.03125 2.75 -1.03125q1.796875 0 2.8125 1.03125q1.03125 1.015625 1.03125 2.8125l0 62.328133q0 1.671875 -1.03125 2.765625q-1.015625 1.078125 -2.8125 1.078125z" fill-rule="nonzero"/><path fill="#4a86e8" d="m215.65016 287.7926q-10.484375 0 -18.5625 -4.609375q-8.0625 -4.609375 -12.671875 -12.671875q-4.59375 -8.0625 -4.59375 -18.42186q0 -10.5 4.734375 -18.5625q4.734375 -8.0625 12.859375 -12.671875q8.125 -4.609375 18.234375 -4.609375q10.5 0 18.5 4.609375q8.0 4.609375 12.609375 12.671875q4.609375 8.0625 4.609375 18.5625l-4.484375 5.1093597q0 8.96875 -3.96875 15.875q-3.96875 6.90625 -11.015625 10.8125q-7.03125 3.90625 -16.25 3.90625zm0.515625 25.984375q-10.625 0 -18.109375 -3.96875q-7.484375 -3.96875 -12.359375 -10.109375q-1.015625 -1.28125 -1.015625 -2.6875q0 -1.40625 1.28125 -2.4375q1.28125 -0.890625 3.0 -0.640625q1.734375 0.265625 2.625 1.671875q3.96875 4.734375 10.109375 7.859375q6.15625 3.140625 14.46875 3.140625q7.9375 0 14.140625 -3.84375q6.21875 -3.828125 9.796875 -10.546875q3.578125 -6.71875 3.578125 -15.046875l0 -20.34375l3.46875 -4.7343597l4.21875 0l0 25.07811q0 10.375 -4.609375 18.6875q-4.609375 8.328125 -12.546875 13.125q-7.9375 4.796875 -18.046875 4.796875zm-0.515625 -33.15625q8.203125 0 14.53125 -3.640625q6.34375 -3.65625 9.921875 -10.109375q3.578125 -6.46875 3.578125 -14.781235q0 -8.453125 -3.578125 -14.90625q-3.578125 -6.46875 -9.921875 -10.109375q-6.328125 -3.65625 -14.53125 -3.65625q-8.1875 0 -14.59375 3.65625q-6.390625 3.640625 -9.984375 10.109375q-3.578125 6.453125 -3.578125 14.90625q0 8.312485 3.578125 14.781235q3.59375 6.453125 9.984375 10.109375q6.40625 3.640625 14.59375 3.640625z" fill-rule="nonzero"/></g></svg>
