<?xml version="1.0" encoding="UTF-8" standalone="no"?>
<svg
   xmlns:dc="http://purl.org/dc/elements/1.1/"
   xmlns:cc="http://creativecommons.org/ns#"
   xmlns:rdf="http://www.w3.org/1999/02/22-rdf-syntax-ns#"
   xmlns:svg="http://www.w3.org/2000/svg"
   xmlns="http://www.w3.org/2000/svg"
   xmlns:sodipodi="http://sodipodi.sourceforge.net/DTD/sodipodi-0.dtd"
   xmlns:inkscape="http://www.inkscape.org/namespaces/inkscape"
   version="1.1"
   viewBox="0.0 0.0 427.9790026246719 354.32020997375326"
   fill="none"
   stroke="none"
   stroke-linecap="square"
   stroke-miterlimit="10"
   id="svg21"
   sodipodi:docname="deepreg_logo_purple.svg"
   inkscape:version="0.92.4 (5da689c313, 2019-01-14)">
  <metadata
     id="metadata27">
    <rdf:RDF>
      <cc:Work
         rdf:about="">
        <dc:format>image/svg+xml</dc:format>
        <dc:type
           rdf:resource="http://purl.org/dc/dcmitype/StillImage" />
      </cc:Work>
    </rdf:RDF>
  </metadata>
  <defs
     id="defs25" />
  <sodipodi:namedview
     pagecolor="#ffffff"
     bordercolor="#666666"
     borderopacity="1"
     objecttolerance="10"
     gridtolerance="10"
     guidetolerance="10"
     inkscape:pageopacity="0"
     inkscape:pageshadow="2"
     inkscape:window-width="2400"
     inkscape:window-height="1321"
     id="namedview23"
     showgrid="false"
     inkscape:zoom="1.8839139"
     inkscape:cx="294.38781"
     inkscape:cy="143.10747"
     inkscape:window-x="-9"
     inkscape:window-y="-9"
     inkscape:window-maximized="1"
     inkscape:current-layer="svg21" />
  <clipPath
     id="p.0">
    <path
       d="m0 0l427.979 0l0 354.32022l-427.979 0l0 -354.32022z"
       clip-rule="nonzero"
       id="path2" />
  </clipPath>
  <g
     clip-path="url(#p.0)"
     id="g19"
     transform="matrix(1.1112198,0,0,1.1112198,9.46919,-26.876608)">
    <path
       d="M 0,0 H 427.979 V 354.32022 H 0 Z"
       id="path5"
       inkscape:connector-curvature="0"
       style="fill:#000000;fill-opacity:0;fill-rule:evenodd" />
    <path
       d="M 0,75.22572 H 355.2126 V 271.91864 H 0 Z"
       id="path7"
       inkscape:connector-curvature="0"
       style="fill:#000000;fill-opacity:0;fill-rule:evenodd" />
    <path
       d="m 53.69789,207.87135 q -10.234375,0 -18.359375,-4.67188 -8.125,-4.67187 -12.796875,-12.79687 -4.671875,-8.125 -4.671875,-18.375 0,-10.23438 4.671875,-18.29688 4.671875,-8.0625 12.796875,-12.73437 8.125,-4.67188 18.359375,-4.67188 9.21875,0 16.578125,3.96875 7.359375,3.96875 11.453125,10.625 v -39.93749 q 0,-1.79688 1.09375,-2.8125 1.09375,-1.03125 2.75,-1.03125 1.796875,0 2.8125,1.03125 1.03125,1.01562 1.03125,2.8125 v 61.82812 q -0.125,9.98437 -4.875,17.92187 -4.734375,7.92188 -12.734375,12.53125 -8,4.60938 -18.109375,4.60938 z m 0,-7.17188 q 8.0625,0 14.390625,-3.76562 6.34375,-3.78125 9.984375,-10.23438 3.65625,-6.46875 3.65625,-14.67187 0,-8.1875 -3.65625,-14.57813 -3.640625,-6.40625 -9.984375,-10.17187 -6.328125,-3.78125 -14.390625,-3.78125 -7.9375,0 -14.34375,3.78125 -6.390625,3.76562 -10.109375,10.17187 -3.703125,6.39063 -3.703125,14.57813 0,8.20312 3.703125,14.67187 3.71875,6.45313 10.109375,10.23438 6.40625,3.76562 14.34375,3.76562 z m 89.73639,7.04688 q -10.10938,0 -17.98437,-4.54688 -7.875,-4.54687 -12.35938,-12.60937 -4.46875,-8.0625 -4.46875,-18.42188 0,-10.5 4.21875,-18.5 4.21875,-8 11.64063,-12.60937 7.42187,-4.60938 17.03124,-4.60938 9.46875,0 16.76563,4.42188 7.29687,4.40625 11.39062,12.15625 4.09375,7.73437 4.09375,17.85937 0,1.65625 -1.03125,2.625 -1.01562,0.95313 -2.67187,0.95313 h -56.32812 v -6.65625 h 58.37499 l -5.64062,4.21875 q 0.26562,-8.3125 -2.8125,-14.70313 -3.07813,-6.40625 -8.78125,-10.04687 -5.6875,-3.65625 -13.35938,-3.65625 -7.29687,0 -13,3.65625 -5.68749,3.64062 -8.95312,10.04687 -3.26562,6.39063 -3.26562,14.84375 0,8.3125 3.45312,14.71875 3.45313,6.39063 9.59375,10.04688 6.15625,3.64062 14.09375,3.64062 4.98437,0 10.03125,-1.71875 5.0625,-1.73437 8.01562,-4.54687 1.01563,-1.03125 2.48438,-1.09375 1.48437,-0.0625 2.5,0.82812 1.40625,1.15625 1.46875,2.5625 0.0781,1.40625 -1.20313,2.5625 -4.09375,3.71875 -10.6875,6.15625 -6.59375,2.42188 -12.60937,2.42188 z m 75.39201,0 q -10.10938,0 -17.98438,-4.54688 -7.875,-4.54687 -12.35937,-12.60937 -4.46875,-8.0625 -4.46875,-18.42188 0,-10.5 4.21875,-18.5 4.21875,-8 11.64062,-12.60937 7.42188,-4.60938 17.03125,-4.60938 9.46875,0 16.76563,4.42188 7.29687,4.40625 11.39062,12.15625 4.09375,7.73437 4.09375,17.85937 0,1.65625 -1.03125,2.625 -1.01562,0.95313 -2.67187,0.95313 h -56.32813 v -6.65625 h 58.375 l -5.64062,4.21875 q 0.26562,-8.3125 -2.8125,-14.70313 -3.07813,-6.40625 -8.78125,-10.04687 -5.6875,-3.65625 -13.35938,-3.65625 -7.29687,0 -13,3.65625 -5.6875,3.64062 -8.95312,10.04687 -3.26563,6.39063 -3.26563,14.84375 0,8.3125 3.45313,14.71875 3.45312,6.39063 9.59375,10.04688 6.15625,3.64062 14.09375,3.64062 4.98437,0 10.03125,-1.71875 5.0625,-1.73437 8.01562,-4.54687 1.01563,-1.03125 2.48438,-1.09375 1.48437,-0.0625 2.5,0.82812 1.40625,1.15625 1.46875,2.5625 0.0781,1.40625 -1.20313,2.5625 -4.09375,3.71875 -10.6875,6.15625 -6.59375,2.42188 -12.60937,2.42188 z"
       id="path9"
       inkscape:connector-curvature="0"
       style="fill:#8e7cc3;fill-rule:nonzero" />
    <path
       d="m 269.6377,237.05885 q -1.65625,0 -2.75,-1.09375 -1.09375,-1.07813 -1.09375,-2.75 v -61.82813 q 0.26562,-10.10937 4.9375,-17.96875 4.67187,-7.875 12.73437,-12.48437 8.0625,-4.60938 18.04688,-4.60938 10.23437,0 18.35937,4.67188 8.14063,4.67187 12.8125,12.79687 4.67188,8.125 4.67188,18.375 0,10.10938 -4.67188,18.23438 -4.67187,8.125 -12.8125,12.79687 -8.125,4.67188 -18.35937,4.67188 -9.21875,0 -16.57813,-3.96875 -7.35937,-3.96875 -11.45312,-10.625 v 39.9375 q 0,1.67187 -1.03125,2.75 -1.01563,1.09375 -2.8125,1.09375 z m 31.875,-36.35938 q 8.0625,0 14.39062,-3.76562 6.34375,-3.78125 10.04688,-10.23438 3.71875,-6.46875 3.71875,-14.53125 0,-8.20312 -3.71875,-14.65625 -3.70313,-6.46875 -10.04688,-10.23437 -6.32812,-3.78125 -14.39062,-3.78125 -7.9375,0 -14.34375,3.78125 -6.39063,3.76562 -10.04688,10.23437 -3.64062,6.45313 -3.64062,14.65625 0,8.0625 3.64062,14.53125 3.65625,6.45313 10.04688,10.23438 6.40625,3.76562 14.34375,3.76562 z"
       id="path11"
       inkscape:connector-curvature="0"
       style="fill:#8e7cc3;fill-rule:nonzero" />
    <path
       d="M 161.00787,1.1469816 H 270.17321 V 277.87141 H 161.00787 Z"
       id="path13"
       inkscape:connector-curvature="0"
       style="fill:#000000;fill-opacity:0;fill-rule:evenodd" />
    <path
       d="m 201.63667,90.276985 q 0.76562,-8.1875 4.46875,-14.515625 3.71875,-6.34375 9.60937,-9.921875 5.89063,-3.59375 13.0625,-3.59375 4.85938,0 7.54688,1.15625 2.6875,1.140625 2.04687,4.09375 -0.375,1.921875 -1.79687,2.3125 -1.40625,0.375 -3.39063,0.0625 -1.98437,-0.328125 -4.40625,-0.328125 -6.40625,0 -11.40625,2.6875 -4.98437,2.6875 -7.79687,7.359375 -2.8125,4.671875 -2.8125,10.6875 z m 1.28125,42.750005 q -1.65625,0 -2.75,-1.07812 -1.09375,-1.09375 -1.09375,-2.76563 V 66.85511 q 0,-1.796875 1.09375,-2.8125 1.09375,-1.03125 2.75,-1.03125 1.79687,0 2.8125,1.03125 1.03125,1.015625 1.03125,2.8125 v 62.32813 q 0,1.67188 -1.03125,2.76563 -1.01563,1.07812 -2.8125,1.07812 z"
       id="path15"
       inkscape:connector-curvature="0"
       style="fill:#8e7cc3;fill-rule:nonzero" />
    <path
       d="m 215.65016,287.7926 q -10.48438,0 -18.5625,-4.60938 -8.0625,-4.60937 -12.67188,-12.67187 -4.59375,-8.0625 -4.59375,-18.42186 0,-10.5 4.73438,-18.5625 4.73437,-8.0625 12.85937,-12.67188 8.125,-4.60937 18.23438,-4.60937 10.5,0 18.5,4.60937 8,4.60938 12.60937,12.67188 4.60938,8.0625 4.60938,18.5625 l -4.48438,5.10936 q 0,8.96875 -3.96875,15.875 -3.96875,6.90625 -11.01562,10.8125 -7.03125,3.90625 -16.25,3.90625 z m 0.51562,25.98437 q -10.625,0 -18.10937,-3.96875 -7.48438,-3.96875 -12.35938,-10.10937 -1.01562,-1.28125 -1.01562,-2.6875 0,-1.40625 1.28125,-2.4375 1.28125,-0.89063 3,-0.64063 1.73437,0.26563 2.625,1.67188 3.96875,4.73437 10.10937,7.85937 6.15625,3.14063 14.46875,3.14063 7.9375,0 14.14063,-3.84375 6.21875,-3.82813 9.79687,-10.54688 3.57813,-6.71875 3.57813,-15.04687 v -20.34375 l 3.46875,-4.73436 h 4.21875 v 25.07811 q 0,10.375 -4.60938,18.6875 -4.60937,8.32813 -12.54687,13.125 -7.9375,4.79688 -18.04688,4.79687 z m -0.51562,-33.15625 q 8.20312,0 14.53125,-3.64062 6.34375,-3.65625 9.92187,-10.10938 3.57813,-6.46875 3.57813,-14.78123 0,-8.45313 -3.57813,-14.90625 -3.57812,-6.46875 -9.92187,-10.10938 -6.32813,-3.65625 -14.53125,-3.65625 -8.1875,0 -14.59375,3.65625 -6.39063,3.64063 -9.98438,10.10938 -3.57812,6.45312 -3.57812,14.90625 0,8.31248 3.57812,14.78123 3.59375,6.45313 9.98438,10.10938 6.40625,3.64062 14.59375,3.64062 z"
       id="path17"
       inkscape:connector-curvature="0"
       style="fill:#8e7cc3;fill-rule:nonzero" />
  </g>
</svg>
